<?xml version="1.0" encoding="UTF-8" standalone="no"?>
<svg xmlns="http://www.w3.org/2000/svg" xmlns:xlink="http://www.w3.org/1999/xlink" class="card" face="4S" height="3.5in" preserveAspectRatio="none" viewBox="-120 -168 240 336" width="2.5in"><symbol id="SS4" viewBox="-600 -600 1200 1200" preserveAspectRatio="xMinYMid"><path d="M0 -500C350 -250 460 -100 460 100C460 300 260 340 210 340C110 340 55 285 100 300L130 500L-130 500L-100 300C-55 285 -110 340 -210 340C-260 340 -460 300 -460 100C-460 -100 -350 -250 0 -500Z" fill="black"></path></symbol><symbol id="VS4" viewBox="-500 -500 1000 1000" preserveAspectRatio="xMinYMid"><path d="M50 460L250 460M150 460L150 -460L-300 175L-300 200L270 200" stroke="black" stroke-width="80" stroke-linecap="square" stroke-miterlimit="1.5" fill="none"></path></symbol><defs><rect id="XS4" width="104" height="200" x="-52" y="-100"></rect></defs><rect width="239" height="335" x="-119.5" y="-167.5" rx="12" ry="12" fill="white" stroke="black"></rect><use xlink:href="#XS4" stroke="#88f" fill="#FFC"></use><use xlink:href="#VS4" height="70" x="-122" y="-156"></use><use xlink:href="#SS4" height="56.946" x="-115.473" y="-81"></use><use xlink:href="#SS4" height="40" x="-51.667" y="-98.334"></use><use xlink:href="#SS4" height="40" x="11.667" y="-98.334"></use><g transform="rotate(180)"><use xlink:href="#VS4" height="70" x="-122" y="-156"></use><use xlink:href="#SS4" height="56.946" x="-115.473" y="-81"></use><use xlink:href="#SS4" height="40" x="-51.667" y="-98.334"></use><use xlink:href="#SS4" height="40" x="11.667" y="-98.334"></use></g></svg>