<?xml version="1.0" encoding="UTF-8" standalone="no"?>
<svg xmlns="http://www.w3.org/2000/svg" xmlns:xlink="http://www.w3.org/1999/xlink" class="card" face="9C" height="3.5in" preserveAspectRatio="none" viewBox="-120 -168 240 336" width="2.5in"><symbol id="SC9" viewBox="-600 -600 1200 1200" preserveAspectRatio="xMinYMid"><path d="M-100 500L100 500L100 340A260 260 0 1 0 200 -150A230 230 0 1 0 -200 -150A260 260 0 1 0 -100 340Z" fill="green"></path></symbol><symbol id="VC9" viewBox="-500 -500 1000 1000" preserveAspectRatio="xMinYMid"><path d="M250 -100A250 250 0 0 1 -250 -100L-250 -210A250 250 0 0 1 250 -210L250 210A250 250 0 0 1 0 460C-150 460 -180 400 -200 375" stroke="green" stroke-width="80" stroke-linecap="square" stroke-miterlimit="1.5" fill="none"></path></symbol><defs><rect id="XC9" width="104" height="200" x="-52" y="-100"></rect></defs><rect width="239" height="335" x="-119.5" y="-167.5" rx="12" ry="12" fill="white" stroke="black"></rect><use xlink:href="#XC9" stroke="#88f" fill="#FFC"></use><use xlink:href="#VC9" height="70" x="-122" y="-156"></use><use xlink:href="#SC9" height="56.946" x="-115.473" y="-81"></use><use xlink:href="#SC9" height="40" x="-51.017" y="-98.434"></use><use xlink:href="#SC9" height="40" x="11.017" y="-98.434"></use><use xlink:href="#SC9" height="40" x="-51.017" y="-46.144"></use><use xlink:href="#SC9" height="40" x="11.017" y="-46.144"></use><use xlink:href="#SC9" height="40" x="-20" y="-24"></use><g transform="rotate(180)"><use xlink:href="#VC9" height="70" x="-122" y="-156"></use><use xlink:href="#SC9" height="56.946" x="-115.473" y="-81"></use><use xlink:href="#SC9" height="40" x="-51.017" y="-98.434"></use><use xlink:href="#SC9" height="40" x="11.017" y="-98.434"></use><use xlink:href="#SC9" height="40" x="-51.017" y="-46.144"></use><use xlink:href="#SC9" height="40" x="11.017" y="-46.144"></use></g></svg>